# xmcd CD database file
#
# Track frame offsets:
#	182
#	12777
#	24025
#	35850
#	49767
#	63677
#	77387
#	87117
#	101965
#	111997
#	123860
#	136660
#	161282
#	180650
#	202372
#
# Disc length: 3027 seconds
#
# Revision: 0
# Processed by: cddbd v1.5.1PL0 Copyright (c) Steve Scherf et al.
# Submitted via: CDex 1.51
#
DISCID=c00bd10f
DTITLE=Bud Powell - My Devotion
DYEAR=1900
DGENRE=Jazz
TTITLE0=Somebody Loves Me
TTITLE1=Bud's Bubble
TTITLE2=Indiana
TTITLE3=Burt Covers Bud
TTITLE4=My Devotion
TTITLE5=Woodyin'You
TTITLE6=Stella By Starlight
TTITLE7=My Heart Stood Still
TTITLE8=Bag's Groove
TTITLE9=You'd Be So Nice To Come Home To
TTITLE10=Embraceable You
TTITLE11=Buttercup
TTITLE12=John's Abbey
TTITLE13=Hallucinations
TTITLE14=Green Dolphin Street
EXTD=
EXTT0=
EXTT1=
EXTT2=
EXTT3=
EXTT4=
EXTT5=
EXTT6=
EXTT7=
EXTT8=
EXTT9=
EXTT10=
EXTT11=
EXTT12=
EXTT13=
EXTT14=
PLAYORDER=
